<svg width="608" height="240" viewBox="0 0 608 240" fill="none" 
  xmlns="http://www.w3.org/2000/svg">
  <g filter="url(#filter0_d)">
    <path fill-rule="evenodd" clip-rule="evenodd" d="M169.202 10.9213C154.265 3.91507 137.59 0 120 0C55.935 0 4 51.935 4 116C4 180.065 55.935 232 120 232C158.427 232 192.49 213.315 213.599 184.535L176 157.218L104.878 208.891L132.044 125.282L60.9222 73.6089H148.834L169.202 10.9213ZM185.923 20.5401L203.166 73.6089H228.01C219.524 52.0032 204.742 33.5609 185.923 20.5401ZM235.977 113.642L219.956 125.282L229.454 154.513C233.694 142.462 236 129.501 236 116C236 115.212 235.992 114.426 235.977 113.642Z" fill="white"/>
  </g>
  <g filter="url(#filter1_d)">
    <path d="M271.45 30H298C304.66 30 310.57 31.32 315.73 33.96C320.89 36.6 324.88 40.32 327.7 45.12C330.58 49.86 332.02 55.32 332.02 61.5C332.02 67.68 330.58 73.17 327.7 77.97C324.88 82.71 320.89 86.4 315.73 89.04C310.57 91.68 304.66 93 298 93H271.45V30ZM297.46 85.17C302.56 85.17 307.03 84.18 310.87 82.2C314.77 80.22 317.77 77.46 319.87 73.92C321.97 70.32 323.02 66.18 323.02 61.5C323.02 56.82 321.97 52.71 319.87 49.17C317.77 45.57 314.77 42.78 310.87 40.8C307.03 38.82 302.56 37.83 297.46 37.83H280.45V85.17H297.46ZM387.655 69.42C387.655 70.08 387.595 70.95 387.475 72.03H348.775C349.315 76.23 351.145 79.62 354.265 82.2C357.445 84.72 361.375 85.98 366.055 85.98C371.755 85.98 376.345 84.06 379.825 80.22L384.595 85.8C382.435 88.32 379.735 90.24 376.495 91.56C373.315 92.88 369.745 93.54 365.785 93.54C360.745 93.54 356.275 92.52 352.375 90.48C348.475 88.38 345.445 85.47 343.285 81.75C341.185 78.03 340.135 73.83 340.135 69.15C340.135 64.53 341.155 60.36 343.195 56.64C345.295 52.92 348.145 50.04 351.745 48C355.405 45.9 359.515 44.85 364.075 44.85C368.635 44.85 372.685 45.9 376.225 48C379.825 50.04 382.615 52.92 384.595 56.64C386.635 60.36 387.655 64.62 387.655 69.42ZM364.075 52.14C359.935 52.14 356.455 53.4 353.635 55.92C350.875 58.44 349.255 61.74 348.775 65.82H379.375C378.895 61.8 377.245 58.53 374.425 56.01C371.665 53.43 368.215 52.14 364.075 52.14ZM407.933 53.31C409.433 50.55 411.653 48.45 414.593 47.01C417.533 45.57 421.103 44.85 425.303 44.85V53.22C424.823 53.16 424.163 53.13 423.323 53.13C418.643 53.13 414.953 54.54 412.253 57.36C409.613 60.12 408.293 64.08 408.293 69.24V93H399.653V45.3H407.933V53.31ZM444.232 53.31C445.732 50.55 447.952 48.45 450.892 47.01C453.832 45.57 457.402 44.85 461.602 44.85V53.22C461.122 53.16 460.462 53.13 459.622 53.13C454.942 53.13 451.252 54.54 448.552 57.36C445.912 60.12 444.592 64.08 444.592 69.24V93H435.952V45.3H444.232V53.31ZM472.251 45.3H480.891V93H472.251V45.3ZM476.571 36.12C474.891 36.12 473.481 35.58 472.341 34.5C471.261 33.42 470.721 32.1 470.721 30.54C470.721 28.98 471.261 27.66 472.341 26.58C473.481 25.44 474.891 24.87 476.571 24.87C478.251 24.87 479.631 25.41 480.711 26.49C481.851 27.51 482.421 28.8 482.421 30.36C482.421 31.98 481.851 33.36 480.711 34.5C479.631 35.58 478.251 36.12 476.571 36.12ZM518.177 93.54C513.317 93.54 508.967 92.49 505.127 90.39C501.347 88.29 498.377 85.41 496.217 81.75C494.057 78.03 492.977 73.83 492.977 69.15C492.977 64.47 494.057 60.3 496.217 56.64C498.377 52.92 501.347 50.04 505.127 48C508.967 45.9 513.317 44.85 518.177 44.85C522.497 44.85 526.337 45.72 529.697 47.46C533.117 49.2 535.757 51.72 537.617 55.02L531.047 59.25C529.547 56.97 527.687 55.26 525.467 54.12C523.247 52.98 520.787 52.41 518.087 52.41C514.967 52.41 512.147 53.1 509.627 54.48C507.167 55.86 505.217 57.84 503.777 60.42C502.397 62.94 501.707 65.85 501.707 69.15C501.707 72.51 502.397 75.48 503.777 78.06C505.217 80.58 507.167 82.53 509.627 83.91C512.147 85.29 514.967 85.98 518.087 85.98C520.787 85.98 523.247 85.41 525.467 84.27C527.687 83.13 529.547 81.42 531.047 79.14L537.617 83.28C535.757 86.58 533.117 89.13 529.697 90.93C526.337 92.67 522.497 93.54 518.177 93.54ZM566.728 70.77L556.828 79.95V93H548.188V26.22H556.828V69.06L582.838 45.3H593.278L573.208 65.01L595.258 93H584.638L566.728 70.77ZM299.62 203.72C293.32 203.72 287.62 202.34 282.52 199.58C277.48 196.76 273.52 192.92 270.64 188.06C267.76 183.14 266.32 177.62 266.32 171.5C266.32 165.38 267.76 159.89 270.64 155.03C273.52 150.11 277.51 146.27 282.61 143.51C287.71 140.69 293.41 139.28 299.71 139.28C304.63 139.28 309.13 140.12 313.21 141.8C317.29 143.42 320.77 145.85 323.65 149.09L317.8 154.76C313.06 149.78 307.15 147.29 300.07 147.29C295.39 147.29 291.16 148.34 287.38 150.44C283.6 152.54 280.63 155.45 278.47 159.17C276.37 162.83 275.32 166.94 275.32 171.5C275.32 176.06 276.37 180.2 278.47 183.92C280.63 187.58 283.6 190.46 287.38 192.56C291.16 194.66 295.39 195.71 300.07 195.71C307.09 195.71 313 193.19 317.8 188.15L323.65 193.82C320.77 197.06 317.26 199.52 313.12 201.2C309.04 202.88 304.54 203.72 299.62 203.72ZM378.195 155.3V203H370.005V195.8C368.265 198.26 365.955 200.18 363.075 201.56C360.255 202.88 357.165 203.54 353.805 203.54C347.445 203.54 342.435 201.8 338.775 198.32C335.115 194.78 333.285 189.59 333.285 182.75V155.3H341.925V181.76C341.925 186.38 343.035 189.89 345.255 192.29C347.475 194.63 350.655 195.8 354.795 195.8C359.355 195.8 362.955 194.42 365.595 191.66C368.235 188.9 369.555 185 369.555 179.96V155.3H378.195ZM439.643 136.22V203H431.363V195.44C429.443 198.08 427.013 200.09 424.073 201.47C421.133 202.85 417.893 203.54 414.353 203.54C409.733 203.54 405.593 202.52 401.933 200.48C398.273 198.44 395.393 195.59 393.293 191.93C391.253 188.21 390.233 183.95 390.233 179.15C390.233 174.35 391.253 170.12 393.293 166.46C395.393 162.8 398.273 159.95 401.933 157.91C405.593 155.87 409.733 154.85 414.353 154.85C417.773 154.85 420.923 155.51 423.803 156.83C426.683 158.09 429.083 159.98 431.003 162.5V136.22H439.643ZM415.073 195.98C418.073 195.98 420.803 195.29 423.263 193.91C425.723 192.47 427.643 190.49 429.023 187.97C430.403 185.39 431.093 182.45 431.093 179.15C431.093 175.85 430.403 172.94 429.023 170.42C427.643 167.84 425.723 165.86 423.263 164.48C420.803 163.1 418.073 162.41 415.073 162.41C412.013 162.41 409.253 163.1 406.793 164.48C404.393 165.86 402.473 167.84 401.033 170.42C399.653 172.94 398.963 175.85 398.963 179.15C398.963 182.45 399.653 185.39 401.033 187.97C402.473 190.49 404.393 192.47 406.793 193.91C409.253 195.29 412.013 195.98 415.073 195.98ZM500.991 136.22V203H492.711V195.44C490.791 198.08 488.361 200.09 485.421 201.47C482.481 202.85 479.241 203.54 475.701 203.54C471.081 203.54 466.941 202.52 463.281 200.48C459.621 198.44 456.741 195.59 454.641 191.93C452.601 188.21 451.581 183.95 451.581 179.15C451.581 174.35 452.601 170.12 454.641 166.46C456.741 162.8 459.621 159.95 463.281 157.91C466.941 155.87 471.081 154.85 475.701 154.85C479.121 154.85 482.271 155.51 485.151 156.83C488.031 158.09 490.431 159.98 492.351 162.5V136.22H500.991ZM476.421 195.98C479.421 195.98 482.151 195.29 484.611 193.91C487.071 192.47 488.991 190.49 490.371 187.97C491.751 185.39 492.441 182.45 492.441 179.15C492.441 175.85 491.751 172.94 490.371 170.42C488.991 167.84 487.071 165.86 484.611 164.48C482.151 163.1 479.421 162.41 476.421 162.41C473.361 162.41 470.601 163.1 468.141 164.48C465.741 165.86 463.821 167.84 462.381 170.42C461.001 172.94 460.311 175.85 460.311 179.15C460.311 182.45 461.001 185.39 462.381 187.97C463.821 190.49 465.741 192.47 468.141 193.91C470.601 195.29 473.361 195.98 476.421 195.98Z" fill="white"/>
  </g>
  <defs>
    <filter id="filter0_d" x="0" y="0" width="240" height="240" filterUnits="userSpaceOnUse" color-interpolation-filters="sRGB">
      <feFlood flood-opacity="0" result="BackgroundImageFix"/>
      <feColorMatrix in="SourceAlpha" type="matrix" values="0 0 0 0 0 0 0 0 0 0 0 0 0 0 0 0 0 0 127 0"/>
      <feOffset dy="4"/>
      <feGaussianBlur stdDeviation="2"/>
      <feColorMatrix type="matrix" values="0 0 0 0 0 0 0 0 0 0 0 0 0 0 0 0 0 0 0.25 0"/>
      <feBlend mode="normal" in2="BackgroundImageFix" result="effect1_dropShadow"/>
      <feBlend mode="normal" in="SourceGraphic" in2="effect1_dropShadow" result="shape"/>
    </filter>
    <filter id="filter1_d" x="262.32" y="24.87" width="336.938" height="186.85" filterUnits="userSpaceOnUse" color-interpolation-filters="sRGB">
      <feFlood flood-opacity="0" result="BackgroundImageFix"/>
      <feColorMatrix in="SourceAlpha" type="matrix" values="0 0 0 0 0 0 0 0 0 0 0 0 0 0 0 0 0 0 127 0"/>
      <feOffset dy="4"/>
      <feGaussianBlur stdDeviation="2"/>
      <feColorMatrix type="matrix" values="0 0 0 0 0 0 0 0 0 0 0 0 0 0 0 0 0 0 0.25 0"/>
      <feBlend mode="normal" in2="BackgroundImageFix" result="effect1_dropShadow"/>
      <feBlend mode="normal" in="SourceGraphic" in2="effect1_dropShadow" result="shape"/>
    </filter>
  </defs>
</svg>
