<svg width="232" height="232" viewBox="0 0 232 232" fill="none" 
  xmlns="http://www.w3.org/2000/svg">
  <path fill-rule="evenodd" clip-rule="evenodd" d="M165.202 10.9213C150.265 3.91507 133.59 0 116 0C51.935 0 0 51.935 0 116C0 180.065 51.935 232 116 232C154.427 232 188.49 213.315 209.599 184.535L172 157.218L100.878 208.891L128.044 125.282L56.9222 73.6089H144.834L165.202 10.9213ZM181.923 20.5401L199.166 73.6089H224.01C215.524 52.0032 200.742 33.5609 181.923 20.5401ZM231.977 113.642L215.956 125.282L225.454 154.513C229.694 142.462 232 129.501 232 116C232 115.212 231.992 114.426 231.977 113.642Z" fill="#820000"/>
</svg>
